<?xml version="1.0" standalone="no"?>
<!DOCTYPE svg PUBLIC "-//W3C//DTD SVG 1.1//EN"
"http://www.w3.org/Graphics/SVG/1.1/DTD/svg11.dtd">

<svg width="627" height="376" view_box="0 0 627 376"
xmlns="http://www.w3.org/2000/svg"
xmlns:link="http://www.w3.org/1999/xlink">\n\n<desc>Généré par Mocodo 2.3.8 le Fri, 21 Aug 2020 19:00:08</desc>

<rect id="frame" x="0" y="0" width="627" height="376" fill="#f7f7f7" stroke="none" stroke-width="0"/>

<!-- Association Inscrire -->
<path d="M268 38 C 342.3333333333333 6.0 394.0 6.0 423 38" fill="none" stroke="#e08214" stroke-width="1"/>
<text x="353" y="31.0" fill="#542788" font-family="Futura" font-size="11">1,N</text>
<path d="M268 38 C 341.6666666666667 70.0 393.3333333333333 70.0 423 38" fill="none" stroke="#e08214" stroke-width="1"/>
<text x="353" y="53.0" fill="#542788" font-family="Futura" font-size="11">1,1</text>
<line x1="556" y1="146" x2="423" y2="38" stroke="#e08214" stroke-width="1"/>
<text x="471" y="105.61493314094456" fill="#542788" font-family="Futura" font-size="11">1,1</text>
<line x1="423" y1="146" x2="423" y2="38" stroke="#e08214" stroke-width="1"/>
<text x="428.0" y="117" fill="#542788" font-family="Futura" font-size="11">1,1</text>
<g id="association-Inscrire">
	<path d="M 455 9 a 14 14 90 0 1 14 14 V 37 h -92 V 23 a 14 14 90 0 1 14 -14" fill="#fdb863" stroke="#fdb863" stroke-width="0"/>
	<path d="M 469 37.0 v 16 a 14 14 90 0 1 -14 14 H 391 a 14 14 90 0 1 -14 -14 V 37.0 H 92" fill="#fee0b6" stroke="#fee0b6" stroke-width="0"/>
	<rect x="377" y="9" width="92" height="58" fill="none" rx="14" stroke="#e08214" stroke-width="1.5"/>
	<line x1="377" y1="37" x2="469" y2="37" stroke="#e08214" stroke-width="1.5"/>
	<text x="384" y="30.3" fill="#000000" font-family="Copperplate" font-size="18">Inscrire</text>
</g>

<!-- Association Définir -->
<line x1="53" y1="346" x2="53" y2="146" stroke="#e08214" stroke-width="1"/>
<text x="58.0" y="317" fill="#542788" font-family="Futura" font-size="11">1,1</text>
<line x1="268" y1="38" x2="53" y2="146" stroke="#e08214" stroke-width="1"/>
<text x="227.26805299663084" y="75" fill="#542788" font-family="Futura" font-size="11">1,N</text>
<g id="association-Définir">
	<path d="M 81 117 a 14 14 90 0 1 14 14 V 145 h -84 V 131 a 14 14 90 0 1 14 -14" fill="#fdb863" stroke="#fdb863" stroke-width="0"/>
	<path d="M 95 145.0 v 16 a 14 14 90 0 1 -14 14 H 25 a 14 14 90 0 1 -14 -14 V 145.0 H 84" fill="#fee0b6" stroke="#fee0b6" stroke-width="0"/>
	<rect x="11" y="117" width="84" height="58" fill="none" rx="14" stroke="#e08214" stroke-width="1.5"/>
	<line x1="11" y1="145" x2="95" y2="145" stroke="#e08214" stroke-width="1.5"/>
	<text x="18" y="138.3" fill="#000000" font-family="Copperplate" font-size="18">Définir</text>
</g>

<!-- Association Créer -->
<line x1="423" y1="346" x2="159" y2="146" stroke="#e08214" stroke-width="1"/>
<text x="394.57536086778106" y="317" fill="#542788" font-family="Futura" font-size="11">1,1</text>
<line x1="268" y1="38" x2="159" y2="146" stroke="#e08214" stroke-width="1"/>
<text x="244.78063757362162" y="75" fill="#542788" font-family="Futura" font-size="11">1,N</text>
<g id="association-Créer">
	<path d="M 180 117 a 14 14 90 0 1 14 14 V 145 h -70 V 131 a 14 14 90 0 1 14 -14" fill="#fdb863" stroke="#fdb863" stroke-width="0"/>
	<path d="M 194 145.0 v 16 a 14 14 90 0 1 -14 14 H 138 a 14 14 90 0 1 -14 -14 V 145.0 H 70" fill="#fee0b6" stroke="#fee0b6" stroke-width="0"/>
	<rect x="124" y="117" width="70" height="58" fill="none" rx="14" stroke="#e08214" stroke-width="1.5"/>
	<line x1="124" y1="145" x2="194" y2="145" stroke="#e08214" stroke-width="1.5"/>
	<text x="131" y="138.3" fill="#000000" font-family="Copperplate" font-size="18">Créer</text>
</g>

<!-- Association Ajouter -->
<line x1="423" y1="263" x2="268" y2="146" stroke="#e08214" stroke-width="1"/>
<text x="371.9707278845097" y="217" fill="#542788" font-family="Futura" font-size="11">1,1</text>
<line x1="268" y1="38" x2="268" y2="146" stroke="#e08214" stroke-width="1"/>
<text x="273.0" y="75" fill="#542788" font-family="Futura" font-size="11">1,N</text>
<g id="association-Ajouter">
	<path d="M 298 117 a 14 14 90 0 1 14 14 V 145 h -88 V 131 a 14 14 90 0 1 14 -14" fill="#fdb863" stroke="#fdb863" stroke-width="0"/>
	<path d="M 312 145.0 v 16 a 14 14 90 0 1 -14 14 H 238 a 14 14 90 0 1 -14 -14 V 145.0 H 88" fill="#fee0b6" stroke="#fee0b6" stroke-width="0"/>
	<rect x="224" y="117" width="88" height="58" fill="none" rx="14" stroke="#e08214" stroke-width="1.5"/>
	<line x1="224" y1="145" x2="312" y2="145" stroke="#e08214" stroke-width="1.5"/>
	<text x="231" y="138.3" fill="#000000" font-family="Copperplate" font-size="18">Ajouter</text>
</g>

<!-- Association Affecter -->
<line x1="556" y1="146" x2="556" y2="263" stroke="#e08214" stroke-width="1"/>
<text x="561.0" y="217" fill="#542788" font-family="Futura" font-size="11">0,N</text>
<line x1="423" y1="263" x2="556" y2="263" stroke="#e08214" stroke-width="1"/>
<text x="483" y="279.0" fill="#542788" font-family="Futura" font-size="11">0,N</text>
<line x1="423" y1="346" x2="556" y2="263" stroke="#e08214" stroke-width="1"/>
<text x="437.4664413096759" y="317" fill="#542788" font-family="Futura" font-size="11">0,N</text>
<line x1="423" y1="146" x2="556" y2="263" stroke="#e08214" stroke-width="1"/>
<text x="429.30410770405587" y="183" fill="#542788" font-family="Futura" font-size="11">0,N</text>
<g id="association-Affecter">
	<path d="M 591 234 a 14 14 90 0 1 14 14 V 262 h -98 V 248 a 14 14 90 0 1 14 -14" fill="#fdb863" stroke="#fdb863" stroke-width="0"/>
	<path d="M 605 262.0 v 16 a 14 14 90 0 1 -14 14 H 521 a 14 14 90 0 1 -14 -14 V 262.0 H 98" fill="#fee0b6" stroke="#fee0b6" stroke-width="0"/>
	<rect x="507" y="234" width="98" height="58" fill="none" rx="14" stroke="#e08214" stroke-width="1.5"/>
	<line x1="507" y1="262" x2="605" y2="262" stroke="#e08214" stroke-width="1.5"/>
	<text x="514" y="255.3" fill="#000000" font-family="Copperplate" font-size="18">Affecter</text>
</g>

<!-- Entity Administrateur -->
<g id="entity-Administrateur">
	<g id="frame-Administrateur">
		<rect x="188" y="17" width="160" height="30" fill="#b2abd2" stroke="#b2abd2" stroke-width="0"/>
		<rect x="188" y="47.0" width="160" height="12" fill="#d8daeb" stroke="#d8daeb" stroke-width="0"/>
		<rect x="188" y="17" width="160" height="42" fill="none" stroke="#8073ac" stroke-width="1.5"/>
		<line x1="188" y1="47" x2="348" y2="47" stroke="#8073ac" stroke-width="1.5"/>
	</g>
	<text x="196" y="38.3" fill="#000000" font-family="Copperplate" font-size="18">Administrateur</text>
</g>

<!-- Entity Élève -->
<g id="entity-Élève">
	<g id="frame-Élève">
		<rect x="388" y="125" width="70" height="30" fill="#b2abd2" stroke="#b2abd2" stroke-width="0"/>
		<rect x="388" y="155.0" width="70" height="12" fill="#d8daeb" stroke="#d8daeb" stroke-width="0"/>
		<rect x="388" y="125" width="70" height="42" fill="none" stroke="#8073ac" stroke-width="1.5"/>
		<line x1="388" y1="155" x2="458" y2="155" stroke="#8073ac" stroke-width="1.5"/>
	</g>
	<text x="396" y="146.3" fill="#000000" font-family="Copperplate" font-size="18">Élève</text>
</g>

<!-- Entity Professeur -->
<g id="entity-Professeur">
	<g id="frame-Professeur">
		<rect x="494" y="91" width="124" height="30" fill="#b2abd2" stroke="#b2abd2" stroke-width="0"/>
		<rect x="494" y="121.0" width="124" height="80" fill="#d8daeb" stroke="#d8daeb" stroke-width="0"/>
		<rect x="494" y="91" width="124" height="110" fill="none" stroke="#8073ac" stroke-width="1.5"/>
		<line x1="494" y1="121" x2="618" y2="121" stroke="#8073ac" stroke-width="1.5"/>
	</g>
	<text x="502" y="112.3" fill="#000000" font-family="Copperplate" font-size="18">Professeur</text>
	<text x="502" y="138.1" fill="#000000" font-family="Gill Sans" font-size="15">professeur_id</text>
	<line x1="502" y1="141" x2="589" y2="141" stroke="#000000" stroke-width="1"/>
	<text x="502" y="155.1" fill="#000000" font-family="Gill Sans" font-size="15">prenom</text>
	<text x="502" y="172.1" fill="#000000" font-family="Gill Sans" font-size="15">nom</text>
	<text x="502" y="189.0" fill="#000000" font-family="Gill Sans" font-size="15">titre</text>
</g>

<!-- Entity Discipline -->
<g id="entity-Discipline">
	<g id="frame-Discipline">
		<rect x="368" y="225" width="110" height="30" fill="#b2abd2" stroke="#b2abd2" stroke-width="0"/>
		<rect x="368" y="255.0" width="110" height="46" fill="#d8daeb" stroke="#d8daeb" stroke-width="0"/>
		<rect x="368" y="225" width="110" height="76" fill="none" stroke="#8073ac" stroke-width="1.5"/>
		<line x1="368" y1="255" x2="478" y2="255" stroke="#8073ac" stroke-width="1.5"/>
	</g>
	<text x="376" y="246.3" fill="#000000" font-family="Copperplate" font-size="18">Discipline</text>
	<text x="376" y="272.1" fill="#000000" font-family="Gill Sans" font-size="15">discipline_id</text>
	<line x1="376" y1="275" x2="453" y2="275" stroke="#000000" stroke-width="1"/>
	<text x="376" y="289.1" fill="#000000" font-family="Gill Sans" font-size="15">nom</text>
</g>

<!-- Entity Période -->
<g id="entity-Période">
	<g id="frame-Période">
		<rect x="9" y="325" width="88" height="30" fill="#b2abd2" stroke="#b2abd2" stroke-width="0"/>
		<rect x="9" y="355.0" width="88" height="12" fill="#d8daeb" stroke="#d8daeb" stroke-width="0"/>
		<rect x="9" y="325" width="88" height="42" fill="none" stroke="#8073ac" stroke-width="1.5"/>
		<line x1="9" y1="355" x2="97" y2="355" stroke="#8073ac" stroke-width="1.5"/>
	</g>
	<text x="17" y="346.3" fill="#000000" font-family="Copperplate" font-size="18">Période</text>
</g>

<!-- Entity Classe -->
<g id="entity-Classe">
	<g id="frame-Classe">
		<rect x="383" y="325" width="80" height="30" fill="#b2abd2" stroke="#b2abd2" stroke-width="0"/>
		<rect x="383" y="355.0" width="80" height="12" fill="#d8daeb" stroke="#d8daeb" stroke-width="0"/>
		<rect x="383" y="325" width="80" height="42" fill="none" stroke="#8073ac" stroke-width="1.5"/>
		<line x1="383" y1="355" x2="463" y2="355" stroke="#8073ac" stroke-width="1.5"/>
	</g>
	<text x="391" y="346.3" fill="#000000" font-family="Copperplate" font-size="18">Classe</text>
</g>
</svg>