<?xml version="1.0" standalone="no"?>
<!DOCTYPE svg PUBLIC "-//W3C//DTD SVG 1.1//EN"
"http://www.w3.org/Graphics/SVG/1.1/DTD/svg11.dtd">

<svg width="428" height="146" view_box="0 0 428 146"
xmlns="http://www.w3.org/2000/svg"
xmlns:link="http://www.w3.org/1999/xlink">\n\n<desc>Généré par Mocodo 2.3.8 le Tue, 01 Sep 2020 05:21:19</desc>

<rect id="frame" x="0" y="0" width="428" height="146" fill="#f7f7f7" stroke="none" stroke-width="0"/>

<!-- Association Assurer -->
<line x1="89" y1="73" x2="244" y2="73" stroke="#e08214" stroke-width="1"/>
<text x="174" y="89.0" fill="#542788" font-family="Futura" font-size="11">1,1</text>
<line x1="369" y1="73" x2="244" y2="73" stroke="#e08214" stroke-width="1"/>
<text x="295" y="89.0" fill="#542788" font-family="Futura" font-size="11">1,N</text>
<g id="association-Assurer">
	<path d="M 276 44 a 14 14 90 0 1 14 14 V 72 h -92 V 58 a 14 14 90 0 1 14 -14" fill="#fdb863" stroke="#fdb863" stroke-width="0"/>
	<path d="M 290 72.0 v 16 a 14 14 90 0 1 -14 14 H 212 a 14 14 90 0 1 -14 -14 V 72.0 H 92" fill="#fee0b6" stroke="#fee0b6" stroke-width="0"/>
	<rect x="198" y="44" width="92" height="58" fill="none" rx="14" stroke="#e08214" stroke-width="1.5"/>
	<line x1="198" y1="72" x2="290" y2="72" stroke="#e08214" stroke-width="1.5"/>
	<text x="205" y="65.3" fill="#000000" font-family="Copperplate" font-size="18">Assurer</text>
</g>

<!-- Entity Administrateur -->
<g id="entity-Administrateur">
	<g id="frame-Administrateur">
		<rect x="9" y="9" width="160" height="30" fill="#b2abd2" stroke="#b2abd2" stroke-width="0"/>
		<rect x="9" y="39.0" width="160" height="98" fill="#d8daeb" stroke="#d8daeb" stroke-width="0"/>
		<rect x="9" y="9" width="160" height="128" fill="none" stroke="#8073ac" stroke-width="1.5"/>
		<line x1="9" y1="39" x2="169" y2="39" stroke="#8073ac" stroke-width="1.5"/>
	</g>
	<text x="17" y="30.299999999999997" fill="#000000" font-family="Copperplate" font-size="18">Administrateur</text>
	<text x="17" y="56.1" fill="#000000" font-family="Gill Sans" font-size="15">FirstName</text>
	<line x1="17" y1="59" x2="83" y2="59" stroke="#000000" stroke-width="1"/>
	<text x="17" y="73.1" fill="#000000" font-family="Gill Sans" font-size="15">LastName</text>
	<text x="17" y="90.1" fill="#000000" font-family="Gill Sans" font-size="15">Gender</text>
	<text x="17" y="107.0" fill="#000000" font-family="Gill Sans" font-size="15">Birthday</text>
	<text x="17" y="124.0" fill="#000000" font-family="Gill Sans" font-size="15">Login</text>
</g>

<!-- Entity Fonction -->
<g id="entity-Fonction">
	<g id="frame-Fonction">
		<rect x="319" y="35" width="100" height="30" fill="#b2abd2" stroke="#b2abd2" stroke-width="0"/>
		<rect x="319" y="65.0" width="100" height="46" fill="#d8daeb" stroke="#d8daeb" stroke-width="0"/>
		<rect x="319" y="35" width="100" height="76" fill="none" stroke="#8073ac" stroke-width="1.5"/>
		<line x1="319" y1="65" x2="419" y2="65" stroke="#8073ac" stroke-width="1.5"/>
	</g>
	<text x="327" y="56.3" fill="#000000" font-family="Copperplate" font-size="18">Fonction</text>
	<text x="327" y="82.1" fill="#000000" font-family="Gill Sans" font-size="15">Func_Id</text>
	<line x1="327" y1="85" x2="377" y2="85" stroke="#000000" stroke-width="1"/>
	<text x="327" y="99.1" fill="#000000" font-family="Gill Sans" font-size="15">Func_Name</text>
</g>
</svg>