<?xml version="1.0" standalone="no"?>
<!DOCTYPE svg PUBLIC "-//W3C//DTD SVG 1.1//EN"
"http://www.w3.org/Graphics/SVG/1.1/DTD/svg11.dtd">

<svg width="887" height="369" view_box="0 0 887 369"
xmlns="http://www.w3.org/2000/svg"
xmlns:link="http://www.w3.org/1999/xlink">\n\n<desc>Généré par Mocodo 2.3.8 le Tue, 18 Aug 2020 03:18:31</desc>

<rect id="frame" x="0" y="0" width="887" height="369" fill="#f7f7f7" stroke="none" stroke-width="0"/>

<!-- Association Planifier -->
<line x1="71" y1="122" x2="71" y2="39" stroke="#e08214" stroke-width="1"/>
<text x="76.0" y="84" fill="#542788" font-family="Futura" font-size="11">(1,1)</text>
<line x1="808" y1="39" x2="71" y2="39" stroke="#e08214" stroke-width="1"/>
<text x="714" y="55.0" fill="#542788" font-family="Futura" font-size="11">0,N</text>
<g id="association-Planifier">
	<path d="M 108 10 a 14 14 90 0 1 14 14 V 38 h -102 V 24 a 14 14 90 0 1 14 -14" fill="#fdb863" stroke="#fdb863" stroke-width="0"/>
	<path d="M 122 38.0 v 16 a 14 14 90 0 1 -14 14 H 34 a 14 14 90 0 1 -14 -14 V 38.0 H 102" fill="#fee0b6" stroke="#fee0b6" stroke-width="0"/>
	<rect x="20" y="10" width="102" height="58" fill="none" rx="14" stroke="#e08214" stroke-width="1.5"/>
	<line x1="20" y1="38" x2="122" y2="38" stroke="#e08214" stroke-width="1.5"/>
	<text x="27" y="31.3" fill="#000000" font-family="Copperplate" font-size="18">Planifier</text>
</g>

<!-- Association Donner -->
<line x1="353" y1="122" x2="213" y2="122" stroke="#e08214" stroke-width="1"/>
<text x="260" y="138.0" fill="#542788" font-family="Futura" font-size="11">(1,1)</text>
<line x1="71" y1="122" x2="213" y2="122" stroke="#e08214" stroke-width="1"/>
<text x="138" y="138.0" fill="#542788" font-family="Futura" font-size="11">0,N</text>
<g id="association-Donner">
	<path d="M 241 93 a 14 14 90 0 1 14 14 V 121 h -84 V 107 a 14 14 90 0 1 14 -14" fill="#fdb863" stroke="#fdb863" stroke-width="0"/>
	<path d="M 255 121.0 v 16 a 14 14 90 0 1 -14 14 H 185 a 14 14 90 0 1 -14 -14 V 121.0 H 84" fill="#fee0b6" stroke="#fee0b6" stroke-width="0"/>
	<rect x="171" y="93" width="84" height="58" fill="none" rx="14" stroke="#e08214" stroke-width="1.5"/>
	<line x1="171" y1="121" x2="255" y2="121" stroke="#e08214" stroke-width="1.5"/>
	<text x="178" y="114.3" fill="#000000" font-family="Copperplate" font-size="18">Donner</text>
</g>

<!-- Association Noter -->
<line x1="353" y1="122" x2="508" y2="122" stroke="#e08214" stroke-width="1"/>
<text x="418" y="138.0" fill="#542788" font-family="Futura" font-size="11">1,N</text>
<line x1="659" y1="122" x2="508" y2="122" stroke="#e08214" stroke-width="1"/>
<text x="594" y="138.0" fill="#542788" font-family="Futura" font-size="11">0,N</text>
<g id="association-Noter">
	<path d="M 529 93 a 14 14 90 0 1 14 14 V 121 h -70 V 107 a 14 14 90 0 1 14 -14" fill="#fdb863" stroke="#fdb863" stroke-width="0"/>
	<path d="M 543 121.0 v 16 a 14 14 90 0 1 -14 14 H 487 a 14 14 90 0 1 -14 -14 V 121.0 H 70" fill="#fee0b6" stroke="#fee0b6" stroke-width="0"/>
	<rect x="473" y="93" width="70" height="58" fill="none" rx="14" stroke="#e08214" stroke-width="1.5"/>
	<line x1="473" y1="121" x2="543" y2="121" stroke="#e08214" stroke-width="1.5"/>
	<text x="480" y="114.3" fill="#000000" font-family="Copperplate" font-size="18">Noter</text>
	<text x="480" y="139.1" fill="#000000" font-family="Gill Sans" font-size="15">Note</text>
</g>

<!-- Association Diviser -->
<line x1="808" y1="39" x2="808" y2="122" stroke="#e08214" stroke-width="1"/>
<text x="813.0" y="85" fill="#542788" font-family="Futura" font-size="11">(1,1)</text>
<line x1="808" y1="222" x2="808" y2="122" stroke="#e08214" stroke-width="1"/>
<text x="813.0" y="184" fill="#542788" font-family="Futura" font-size="11">1,N</text>
<g id="association-Diviser">
	<path d="M 835 93 a 14 14 90 0 1 14 14 V 121 h -82 V 107 a 14 14 90 0 1 14 -14" fill="#fdb863" stroke="#fdb863" stroke-width="0"/>
	<path d="M 849 121.0 v 16 a 14 14 90 0 1 -14 14 H 781 a 14 14 90 0 1 -14 -14 V 121.0 H 82" fill="#fee0b6" stroke="#fee0b6" stroke-width="0"/>
	<rect x="767" y="93" width="82" height="58" fill="none" rx="14" stroke="#e08214" stroke-width="1.5"/>
	<line x1="767" y1="121" x2="849" y2="121" stroke="#e08214" stroke-width="1.5"/>
	<text x="774" y="114.3" fill="#000000" font-family="Copperplate" font-size="18">Diviser</text>
</g>

<!-- Association Appartenir -->
<line x1="659" y1="313" x2="659" y2="222" stroke="#e08214" stroke-width="1"/>
<text x="664.0" y="275" fill="#542788" font-family="Futura" font-size="11">1,N</text>
<line x1="659" y1="122" x2="659" y2="222" stroke="#e08214" stroke-width="1"/>
<text x="664.0" y="185" fill="#542788" font-family="Futura" font-size="11">1,1</text>
<g id="association-Appartenir">
	<path d="M 703 193 a 14 14 90 0 1 14 14 V 221 h -116 V 207 a 14 14 90 0 1 14 -14" fill="#fdb863" stroke="#fdb863" stroke-width="0"/>
	<path d="M 717 221.0 v 16 a 14 14 90 0 1 -14 14 H 615 a 14 14 90 0 1 -14 -14 V 221.0 H 116" fill="#fee0b6" stroke="#fee0b6" stroke-width="0"/>
	<rect x="601" y="193" width="116" height="58" fill="none" rx="14" stroke="#e08214" stroke-width="1.5"/>
	<line x1="601" y1="221" x2="717" y2="221" stroke="#e08214" stroke-width="1.5"/>
	<text x="608" y="214.3" fill="#000000" font-family="Copperplate" font-size="18">Appartenir</text>
</g>

<!-- Association Enseigner -->
<line x1="659" y1="313" x2="508" y2="313" stroke="#e08214" stroke-width="1"/>
<text x="595" y="329.0" fill="#542788" font-family="Futura" font-size="11">1,N</text>
<line x1="353" y1="313" x2="508" y2="313" stroke="#e08214" stroke-width="1"/>
<text x="420" y="329.0" fill="#542788" font-family="Futura" font-size="11">1,N</text>
<line x1="508" y1="222" x2="508" y2="313" stroke="#e08214" stroke-width="1"/>
<text x="513.0" y="276" fill="#542788" font-family="Futura" font-size="11">1,N</text>
<g id="association-Enseigner">
	<path d="M 549 284 a 14 14 90 0 1 14 14 V 312 h -110 V 298 a 14 14 90 0 1 14 -14" fill="#fdb863" stroke="#fdb863" stroke-width="0"/>
	<path d="M 563 312.0 v 16 a 14 14 90 0 1 -14 14 H 467 a 14 14 90 0 1 -14 -14 V 312.0 H 110" fill="#fee0b6" stroke="#fee0b6" stroke-width="0"/>
	<rect x="453" y="284" width="110" height="58" fill="none" rx="14" stroke="#e08214" stroke-width="1.5"/>
	<line x1="453" y1="312" x2="563" y2="312" stroke="#e08214" stroke-width="1.5"/>
	<text x="460" y="305.3" fill="#000000" font-family="Copperplate" font-size="18">Enseigner</text>
</g>

<!-- Association Exister -->
<line x1="808" y1="222" x2="808" y2="313" stroke="#e08214" stroke-width="1"/>
<text x="813.0" y="268" fill="#542788" font-family="Futura" font-size="11">1,N</text>
<line x1="659" y1="313" x2="808" y2="313" stroke="#e08214" stroke-width="1"/>
<text x="704" y="329.0" fill="#542788" font-family="Futura" font-size="11">(1,1)</text>
<g id="association-Exister">
	<path d="M 836 284 a 14 14 90 0 1 14 14 V 312 h -84 V 298 a 14 14 90 0 1 14 -14" fill="#fdb863" stroke="#fdb863" stroke-width="0"/>
	<path d="M 850 312.0 v 16 a 14 14 90 0 1 -14 14 H 780 a 14 14 90 0 1 -14 -14 V 312.0 H 84" fill="#fee0b6" stroke="#fee0b6" stroke-width="0"/>
	<rect x="766" y="284" width="84" height="58" fill="none" rx="14" stroke="#e08214" stroke-width="1.5"/>
	<line x1="766" y1="312" x2="850" y2="312" stroke="#e08214" stroke-width="1.5"/>
	<text x="773" y="305.3" fill="#000000" font-family="Copperplate" font-size="18">Exister</text>
</g>

<!-- Entity Sous-Période -->
<g id="entity-Sous-Période">
	<g id="frame-Sous-Période">
		<rect x="738" y="9" width="140" height="30" fill="#b2abd2" stroke="#b2abd2" stroke-width="0"/>
		<rect x="738" y="39.0" width="140" height="30" fill="#d8daeb" stroke="#d8daeb" stroke-width="0"/>
		<rect x="738" y="9" width="140" height="60" fill="none" stroke="#8073ac" stroke-width="1.5"/>
		<line x1="738" y1="39" x2="878" y2="39" stroke="#8073ac" stroke-width="1.5"/>
	</g>
	<text x="746" y="30.3" fill="#000000" font-family="Copperplate" font-size="18">Sous-Période</text>
	<text x="746" y="56.1" fill="#000000" font-family="Gill Sans" font-size="15">sous-période_id</text>
	<line x1="746" y1="59" x2="847" y2="59" style="fill:none;stroke:#000000;stroke-width:1;stroke-dasharray:4;"/>
</g>

<!-- Entity Évaluateur -->
<g id="entity-Évaluateur">
	<g id="frame-Évaluateur">
		<rect x="9" y="92" width="124" height="30" fill="#b2abd2" stroke="#b2abd2" stroke-width="0"/>
		<rect x="9" y="122.0" width="124" height="30" fill="#d8daeb" stroke="#d8daeb" stroke-width="0"/>
		<rect x="9" y="92" width="124" height="60" fill="none" stroke="#8073ac" stroke-width="1.5"/>
		<line x1="9" y1="122" x2="133" y2="122" stroke="#8073ac" stroke-width="1.5"/>
	</g>
	<text x="17" y="113.3" fill="#000000" font-family="Copperplate" font-size="18">Évaluateur</text>
	<text x="17" y="139.1" fill="#000000" font-family="Gill Sans" font-size="15">professeur_id</text>
	<line x1="17" y1="142" x2="104" y2="142" style="fill:none;stroke:#000000;stroke-width:1;stroke-dasharray:4;"/>
</g>

<!-- Entity Évaluation -->
<g id="entity-Évaluation">
	<g id="frame-Évaluation">
		<rect x="293" y="75" width="120" height="30" fill="#b2abd2" stroke="#b2abd2" stroke-width="0"/>
		<rect x="293" y="105.0" width="120" height="64" fill="#d8daeb" stroke="#d8daeb" stroke-width="0"/>
		<rect x="293" y="75" width="120" height="94" fill="none" stroke="#8073ac" stroke-width="1.5"/>
		<line x1="293" y1="105" x2="413" y2="105" stroke="#8073ac" stroke-width="1.5"/>
	</g>
	<text x="301" y="96.3" fill="#000000" font-family="Copperplate" font-size="18">Évaluation</text>
	<text x="301" y="122.1" fill="#000000" font-family="Gill Sans" font-size="15">evaluation_id</text>
	<line x1="301" y1="125" x2="384" y2="125" style="fill:none;stroke:#000000;stroke-width:1;stroke-dasharray:4;"/>
	<text x="301" y="139.1" fill="#000000" font-family="Gill Sans" font-size="15">Date_Contrôle</text>
	<text x="301" y="156.0" fill="#000000" font-family="Gill Sans" font-size="15">Date_Note</text>
</g>

<!-- Entity Élève -->
<g id="entity-Élève">
	<g id="frame-Élève">
		<rect x="618" y="75" width="82" height="30" fill="#b2abd2" stroke="#b2abd2" stroke-width="0"/>
		<rect x="618" y="105.0" width="82" height="64" fill="#d8daeb" stroke="#d8daeb" stroke-width="0"/>
		<rect x="618" y="75" width="82" height="94" fill="none" stroke="#8073ac" stroke-width="1.5"/>
		<line x1="618" y1="105" x2="700" y2="105" stroke="#8073ac" stroke-width="1.5"/>
	</g>
	<text x="632" y="96.3" fill="#000000" font-family="Copperplate" font-size="18">Élève</text>
	<text x="626" y="122.1" fill="#000000" font-family="Gill Sans" font-size="15">eleve_id</text>
	<line x1="626" y1="125" x2="679" y2="125" stroke="#000000" stroke-width="1"/>
	<text x="626" y="139.1" fill="#000000" font-family="Gill Sans" font-size="15">FirstName</text>
	<text x="626" y="156.0" fill="#000000" font-family="Gill Sans" font-size="15">LastName</text>
</g>

<!-- Entity Discipline -->
<g id="entity-Discipline">
	<g id="frame-Discipline">
		<rect x="453" y="184" width="110" height="30" fill="#b2abd2" stroke="#b2abd2" stroke-width="0"/>
		<rect x="453" y="214.0" width="110" height="46" fill="#d8daeb" stroke="#d8daeb" stroke-width="0"/>
		<rect x="453" y="184" width="110" height="76" fill="none" stroke="#8073ac" stroke-width="1.5"/>
		<line x1="453" y1="214" x2="563" y2="214" stroke="#8073ac" stroke-width="1.5"/>
	</g>
	<text x="461" y="205.3" fill="#000000" font-family="Copperplate" font-size="18">Discipline</text>
	<text x="461" y="231.1" fill="#000000" font-family="Gill Sans" font-size="15">discipline_id</text>
	<line x1="461" y1="234" x2="538" y2="234" stroke="#000000" stroke-width="1"/>
	<text x="461" y="248.1" fill="#000000" font-family="Gill Sans" font-size="15">Disc_Name</text>
</g>

<!-- Entity Période -->
<g id="entity-Période">
	<g id="frame-Période">
		<rect x="755" y="192" width="106" height="30" fill="#b2abd2" stroke="#b2abd2" stroke-width="0"/>
		<rect x="755" y="222.0" width="106" height="30" fill="#d8daeb" stroke="#d8daeb" stroke-width="0"/>
		<rect x="755" y="192" width="106" height="60" fill="none" stroke="#8073ac" stroke-width="1.5"/>
		<line x1="755" y1="222" x2="861" y2="222" stroke="#8073ac" stroke-width="1.5"/>
	</g>
	<text x="772" y="213.3" fill="#000000" font-family="Copperplate" font-size="18">Période</text>
	<text x="763" y="239.1" fill="#000000" font-family="Gill Sans" font-size="15">année-scolaire</text>
	<line x1="763" y1="242" x2="853" y2="242" stroke="#000000" stroke-width="1"/>
</g>

<!-- Entity Professeur -->
<g id="entity-Professeur">
	<g id="frame-Professeur">
		<rect x="291" y="266" width="124" height="30" fill="#b2abd2" stroke="#b2abd2" stroke-width="0"/>
		<rect x="291" y="296.0" width="124" height="64" fill="#d8daeb" stroke="#d8daeb" stroke-width="0"/>
		<rect x="291" y="266" width="124" height="94" fill="none" stroke="#8073ac" stroke-width="1.5"/>
		<line x1="291" y1="296" x2="415" y2="296" stroke="#8073ac" stroke-width="1.5"/>
	</g>
	<text x="299" y="287.3" fill="#000000" font-family="Copperplate" font-size="18">Professeur</text>
	<text x="299" y="313.1" fill="#000000" font-family="Gill Sans" font-size="15">professeur_ id</text>
	<line x1="299" y1="316" x2="390" y2="316" stroke="#000000" stroke-width="1"/>
	<text x="299" y="330.1" fill="#000000" font-family="Gill Sans" font-size="15">FirstName</text>
	<text x="299" y="347.0" fill="#000000" font-family="Gill Sans" font-size="15">LastName</text>
</g>

<!-- Entity Classe -->
<g id="entity-Classe">
	<g id="frame-Classe">
		<rect x="619" y="283" width="80" height="30" fill="#b2abd2" stroke="#b2abd2" stroke-width="0"/>
		<rect x="619" y="313.0" width="80" height="30" fill="#d8daeb" stroke="#d8daeb" stroke-width="0"/>
		<rect x="619" y="283" width="80" height="60" fill="none" stroke="#8073ac" stroke-width="1.5"/>
		<line x1="619" y1="313" x2="699" y2="313" stroke="#8073ac" stroke-width="1.5"/>
	</g>
	<text x="627" y="304.3" fill="#000000" font-family="Copperplate" font-size="18">Classe</text>
	<text x="627" y="330.1" fill="#000000" font-family="Gill Sans" font-size="15">classe_id</text>
	<line x1="627" y1="333" x2="683" y2="333" style="fill:none;stroke:#000000;stroke-width:1;stroke-dasharray:4;"/>
</g>
</svg>