<?xml version="1.0" standalone="no"?>
<!DOCTYPE svg PUBLIC "-//W3C//DTD SVG 1.1//EN"
"http://www.w3.org/Graphics/SVG/1.1/DTD/svg11.dtd">

<svg width="645" height="577" view_box="0 0 645 577"
xmlns="http://www.w3.org/2000/svg"
xmlns:link="http://www.w3.org/1999/xlink">\n\n<desc>Généré par Mocodo 2.3.8 le Sat, 29 Aug 2020 15:52:25</desc>

<rect id="frame" x="0" y="0" width="645" height="577" fill="none" stroke="none" stroke-width="0"/>

<!-- Association Porter -->
<line x1="486" y1="155" x2="210" y2="47" stroke="#000000" stroke-width="1"/>
<text x="403" y="144.45888903192136" fill="#000000" font-family="Futura" font-size="11">1,1</text>
<line x1="64" y1="47" x2="210" y2="47" stroke="#000000" stroke-width="1"/>
<text x="124" y="63.0" fill="#000000" font-family="Futura" font-size="11">0,N</text>
<g id="association-Porter">
	<path d="M 236 18 a 14 14 90 0 1 14 14 V 46 h -80 V 32 a 14 14 90 0 1 14 -14" fill="#FFFFFF" stroke="#FFFFFF" stroke-width="0"/>
	<path d="M 250 46.0 v 16 a 14 14 90 0 1 -14 14 H 184 a 14 14 90 0 1 -14 -14 V 46.0 H 80" fill="#FFFFFF" stroke="#FFFFFF" stroke-width="0"/>
	<rect x="170" y="18" width="80" height="58" fill="none" rx="14" stroke="#000000" stroke-width="1.5"/>
	<line x1="170" y1="46" x2="250" y2="46" stroke="#000000" stroke-width="1.5"/>
	<text x="177" y="39.3" fill="#000000" font-family="Copperplate" font-size="18">Porter</text>
</g>

<!-- Association Enseigner -->
<line x1="210" y1="155" x2="64" y2="155" stroke="#000000" stroke-width="1"/>
<text x="124" y="171.0" fill="#000000" font-family="Futura" font-size="11">0,N</text>
<line x1="64" y1="47" x2="64" y2="155" stroke="#000000" stroke-width="1"/>
<text x="69.0" y="101" fill="#000000" font-family="Futura" font-size="11">0,N</text>
<line x1="64" y1="305" x2="64" y2="155" stroke="#000000" stroke-width="1"/>
<text x="69.0" y="250" fill="#000000" font-family="Futura" font-size="11">1,N</text>
<g id="association-Enseigner">
	<path d="M 105 126 a 14 14 90 0 1 14 14 V 154 h -110 V 140 a 14 14 90 0 1 14 -14" fill="#FFFFFF" stroke="#FFFFFF" stroke-width="0"/>
	<path d="M 119 154.0 v 16 a 14 14 90 0 1 -14 14 H 23 a 14 14 90 0 1 -14 -14 V 154.0 H 110" fill="#FFFFFF" stroke="#FFFFFF" stroke-width="0"/>
	<rect x="9" y="126" width="110" height="58" fill="none" rx="14" stroke="#000000" stroke-width="1.5"/>
	<line x1="9" y1="154" x2="119" y2="154" stroke="#000000" stroke-width="1.5"/>
	<text x="16" y="147.3" fill="#000000" font-family="Copperplate" font-size="18">Enseigner</text>
</g>

<!-- Association Realiser -->
<line x1="486" y1="155" x2="349" y2="155" stroke="#000000" stroke-width="1"/>
<text x="403" y="171.0" fill="#000000" font-family="Futura" font-size="11">1,1</text>
<line x1="210" y1="155" x2="349" y2="155" stroke="#000000" stroke-width="1"/>
<text x="277" y="171.0" fill="#000000" font-family="Futura" font-size="11">0,N</text>
<g id="association-Realiser">
	<path d="M 383 126 a 14 14 90 0 1 14 14 V 154 h -96 V 140 a 14 14 90 0 1 14 -14" fill="#FFFFFF" stroke="#FFFFFF" stroke-width="0"/>
	<path d="M 397 154.0 v 16 a 14 14 90 0 1 -14 14 H 315 a 14 14 90 0 1 -14 -14 V 154.0 H 96" fill="#FFFFFF" stroke="#FFFFFF" stroke-width="0"/>
	<rect x="301" y="126" width="96" height="58" fill="none" rx="14" stroke="#000000" stroke-width="1.5"/>
	<line x1="301" y1="154" x2="397" y2="154" stroke="#000000" stroke-width="1.5"/>
	<text x="308" y="147.3" fill="#000000" font-family="Copperplate" font-size="18">Realiser</text>
</g>

<!-- Association Destiner -->
<line x1="486" y1="155" x2="210" y2="305" stroke="#000000" stroke-width="1"/>
<text x="403" y="183.8434384336753" fill="#000000" font-family="Futura" font-size="11">1,1</text>
<line x1="64" y1="305" x2="210" y2="305" stroke="#000000" stroke-width="1"/>
<text x="109" y="297.0" fill="#000000" font-family="Futura" font-size="11">0,N</text>
<g id="association-Destiner">
	<path d="M 244 276 a 14 14 90 0 1 14 14 V 304 h -96 V 290 a 14 14 90 0 1 14 -14" fill="#FFFFFF" stroke="#FFFFFF" stroke-width="0"/>
	<path d="M 258 304.0 v 16 a 14 14 90 0 1 -14 14 H 176 a 14 14 90 0 1 -14 -14 V 304.0 H 96" fill="#FFFFFF" stroke="#FFFFFF" stroke-width="0"/>
	<rect x="162" y="276" width="96" height="58" fill="none" rx="14" stroke="#000000" stroke-width="1.5"/>
	<line x1="162" y1="304" x2="258" y2="304" stroke="#000000" stroke-width="1.5"/>
	<text x="169" y="297.3" fill="#000000" font-family="Copperplate" font-size="18">Destiner</text>
</g>

<!-- Association Evaluer -->
<line x1="486" y1="155" x2="349" y2="305" stroke="#000000" stroke-width="1"/>
<text x="434.14816003308215" y="226" fill="#000000" font-family="Futura" font-size="11">1,N</text>
<line x1="349" y1="413" x2="349" y2="305" stroke="#000000" stroke-width="1"/>
<text x="354.0" y="350" fill="#000000" font-family="Futura" font-size="11">1,N</text>
<g id="association-Evaluer">
	<path d="M 380 276 a 14 14 90 0 1 14 14 V 304 h -90 V 290 a 14 14 90 0 1 14 -14" fill="#FFFFFF" stroke="#FFFFFF" stroke-width="0"/>
	<path d="M 394 304.0 v 16 a 14 14 90 0 1 -14 14 H 318 a 14 14 90 0 1 -14 -14 V 304.0 H 90" fill="#FFFFFF" stroke="#FFFFFF" stroke-width="0"/>
	<rect x="304" y="276" width="90" height="58" fill="none" rx="14" stroke="#000000" stroke-width="1.5"/>
	<line x1="304" y1="304" x2="394" y2="304" stroke="#000000" stroke-width="1.5"/>
	<text x="311" y="297.3" fill="#000000" font-family="Copperplate" font-size="18">Evaluer</text>
	<text x="311" y="322.1" fill="#000000" font-family="Gill Sans" font-size="15">note</text>
</g>

<!-- Association Situer -->
<line x1="486" y1="530" x2="486" y2="305" stroke="#000000" stroke-width="1"/>
<text x="491.0" y="484" fill="#000000" font-family="Futura" font-size="11">0,N</text>
<line x1="592" y1="413" x2="486" y2="305" stroke="#000000" stroke-width="1"/>
<text x="552.7261566701801" y="367" fill="#000000" font-family="Futura" font-size="11">0,N</text>
<line x1="486" y1="155" x2="486" y2="305" stroke="#000000" stroke-width="1"/>
<text x="491.0" y="226" fill="#000000" font-family="Futura" font-size="11">1,1</text>
<g id="association-Situer">
	<path d="M 510 276 a 14 14 90 0 1 14 14 V 304 h -76 V 290 a 14 14 90 0 1 14 -14" fill="#FFFFFF" stroke="#FFFFFF" stroke-width="0"/>
	<path d="M 524 304.0 v 16 a 14 14 90 0 1 -14 14 H 462 a 14 14 90 0 1 -14 -14 V 304.0 H 76" fill="#FFFFFF" stroke="#FFFFFF" stroke-width="0"/>
	<rect x="448" y="276" width="76" height="58" fill="none" rx="14" stroke="#000000" stroke-width="1.5"/>
	<line x1="448" y1="304" x2="524" y2="304" stroke="#000000" stroke-width="1.5"/>
	<text x="455" y="297.3" fill="#000000" font-family="Copperplate" font-size="18">Situer</text>
</g>

<!-- Association Appartenir -->
<line x1="64" y1="305" x2="210" y2="413" stroke="#000000" stroke-width="1"/>
<text x="109" y="332.1804588608741" fill="#000000" font-family="Futura" font-size="11">1,N</text>
<line x1="349" y1="413" x2="210" y2="413" stroke="#000000" stroke-width="1"/>
<text x="291" y="429.0" fill="#000000" font-family="Futura" font-size="11">1,1</text>
<g id="association-Appartenir">
	<path d="M 254 384 a 14 14 90 0 1 14 14 V 412 h -116 V 398 a 14 14 90 0 1 14 -14" fill="#FFFFFF" stroke="#FFFFFF" stroke-width="0"/>
	<path d="M 268 412.0 v 16 a 14 14 90 0 1 -14 14 H 166 a 14 14 90 0 1 -14 -14 V 412.0 H 116" fill="#FFFFFF" stroke="#FFFFFF" stroke-width="0"/>
	<rect x="152" y="384" width="116" height="58" fill="none" rx="14" stroke="#000000" stroke-width="1.5"/>
	<line x1="152" y1="412" x2="268" y2="412" stroke="#000000" stroke-width="1.5"/>
	<text x="159" y="405.3" fill="#000000" font-family="Copperplate" font-size="18">Appartenir</text>
</g>

<!-- Association Exister -->
<line x1="486" y1="530" x2="64" y2="530" stroke="#000000" stroke-width="1"/>
<text x="385" y="546.0" fill="#000000" font-family="Futura" font-size="11">0,N</text>
<line x1="64" y1="305" x2="64" y2="530" stroke="#000000" stroke-width="1"/>
<text x="41.0" y="368" fill="#000000" font-family="Futura" font-size="11">1,1</text>
<g id="association-Exister">
	<path d="M 92 501 a 14 14 90 0 1 14 14 V 529 h -84 V 515 a 14 14 90 0 1 14 -14" fill="#FFFFFF" stroke="#FFFFFF" stroke-width="0"/>
	<path d="M 106 529.0 v 16 a 14 14 90 0 1 -14 14 H 36 a 14 14 90 0 1 -14 -14 V 529.0 H 84" fill="#FFFFFF" stroke="#FFFFFF" stroke-width="0"/>
	<rect x="22" y="501" width="84" height="58" fill="none" rx="14" stroke="#000000" stroke-width="1.5"/>
	<line x1="22" y1="529" x2="106" y2="529" stroke="#000000" stroke-width="1.5"/>
	<text x="29" y="522.3" fill="#000000" font-family="Copperplate" font-size="18">Exister</text>
</g>

<!-- Entity Discipline -->
<g id="entity-Discipline">
	<g id="frame-Discipline">
		<rect x="9" y="9" width="110" height="30" fill="#FFFFFF" stroke="#FFFFFF" stroke-width="0"/>
		<rect x="9" y="39.0" width="110" height="46" fill="#FFFFFF" stroke="#FFFFFF" stroke-width="0"/>
		<rect x="9" y="9" width="110" height="76" fill="none" stroke="#000000" stroke-width="1.5"/>
		<line x1="9" y1="39" x2="119" y2="39" stroke="#000000" stroke-width="1.5"/>
	</g>
	<text x="17" y="30.3" fill="#000000" font-family="Copperplate" font-size="18">Discipline</text>
	<text x="17" y="56.1" fill="#000000" font-family="Gill Sans" font-size="15">discipline_id</text>
	<line x1="17" y1="59" x2="94" y2="59" stroke="#000000" stroke-width="1"/>
	<text x="17" y="73.1" fill="#000000" font-family="Gill Sans" font-size="15">nom</text>
</g>

<!-- Entity Professeur -->
<g id="entity-Professeur">
	<g id="frame-Professeur">
		<rect x="148" y="100" width="124" height="30" fill="#FFFFFF" stroke="#FFFFFF" stroke-width="0"/>
		<rect x="148" y="130.0" width="124" height="80" fill="#FFFFFF" stroke="#FFFFFF" stroke-width="0"/>
		<rect x="148" y="100" width="124" height="110" fill="none" stroke="#000000" stroke-width="1.5"/>
		<line x1="148" y1="130" x2="272" y2="130" stroke="#000000" stroke-width="1.5"/>
	</g>
	<text x="156" y="121.3" fill="#000000" font-family="Copperplate" font-size="18">Professeur</text>
	<text x="156" y="147.1" fill="#000000" font-family="Gill Sans" font-size="15">professeur_id</text>
	<line x1="156" y1="150" x2="243" y2="150" stroke="#000000" stroke-width="1"/>
	<text x="156" y="164.1" fill="#000000" font-family="Gill Sans" font-size="15">prenom</text>
	<text x="156" y="181.1" fill="#000000" font-family="Gill Sans" font-size="15">nom</text>
	<text x="156" y="198.0" fill="#000000" font-family="Gill Sans" font-size="15">titre</text>
</g>

<!-- Entity Evaluation -->
<g id="entity-Evaluation">
	<g id="frame-Evaluation">
		<rect x="426" y="100" width="120" height="30" fill="#FFFFFF" stroke="#FFFFFF" stroke-width="0"/>
		<rect x="426" y="130.0" width="120" height="80" fill="#FFFFFF" stroke="#FFFFFF" stroke-width="0"/>
		<rect x="426" y="100" width="120" height="110" fill="none" stroke="#000000" stroke-width="1.5"/>
		<line x1="426" y1="130" x2="546" y2="130" stroke="#000000" stroke-width="1.5"/>
	</g>
	<text x="434" y="121.3" fill="#000000" font-family="Copperplate" font-size="18">Evaluation</text>
	<text x="434" y="147.1" fill="#000000" font-family="Gill Sans" font-size="15">evaluation_id</text>
	<line x1="434" y1="150" x2="517" y2="150" stroke="#000000" stroke-width="1"/>
	<text x="434" y="164.1" fill="#000000" font-family="Gill Sans" font-size="15">nom</text>
	<text x="434" y="181.1" fill="#000000" font-family="Gill Sans" font-size="15">Date_Controle</text>
	<text x="434" y="198.0" fill="#000000" font-family="Gill Sans" font-size="15">Date_Visible</text>
</g>

<!-- Entity Classe -->
<g id="entity-Classe">
	<g id="frame-Classe">
		<rect x="24" y="258" width="80" height="30" fill="#FFFFFF" stroke="#FFFFFF" stroke-width="0"/>
		<rect x="24" y="288.0" width="80" height="64" fill="#FFFFFF" stroke="#FFFFFF" stroke-width="0"/>
		<rect x="24" y="258" width="80" height="94" fill="none" stroke="#000000" stroke-width="1.5"/>
		<line x1="24" y1="288" x2="104" y2="288" stroke="#000000" stroke-width="1.5"/>
	</g>
	<text x="32" y="279.3" fill="#000000" font-family="Copperplate" font-size="18">Classe</text>
	<text x="32" y="305.1" fill="#000000" font-family="Gill Sans" font-size="15">classe_id</text>
	<line x1="32" y1="308" x2="88" y2="308" stroke="#000000" stroke-width="1"/>
	<text x="32" y="322.1" fill="#000000" font-family="Gill Sans" font-size="15">nom</text>
	<text x="32" y="339.0" fill="#000000" font-family="Gill Sans" font-size="15">niveau</text>
</g>

<!-- Entity Eleve -->
<g id="entity-Eleve">
	<g id="frame-Eleve">
		<rect x="314" y="358" width="70" height="30" fill="#FFFFFF" stroke="#FFFFFF" stroke-width="0"/>
		<rect x="314" y="388.0" width="70" height="80" fill="#FFFFFF" stroke="#FFFFFF" stroke-width="0"/>
		<rect x="314" y="358" width="70" height="110" fill="none" stroke="#000000" stroke-width="1.5"/>
		<line x1="314" y1="388" x2="384" y2="388" stroke="#000000" stroke-width="1.5"/>
	</g>
	<text x="322" y="379.3" fill="#000000" font-family="Copperplate" font-size="18">Eleve</text>
	<text x="322" y="405.1" fill="#000000" font-family="Gill Sans" font-size="15">eleve_id</text>
	<line x1="322" y1="408" x2="375" y2="408" stroke="#000000" stroke-width="1"/>
	<text x="322" y="422.1" fill="#000000" font-family="Gill Sans" font-size="15">prénom</text>
	<text x="322" y="439.1" fill="#000000" font-family="Gill Sans" font-size="15">nom</text>
	<text x="322" y="456.0" fill="#000000" font-family="Gill Sans" font-size="15">genre</text>
</g>

<!-- Entity Periode -->
<g id="entity-Periode">
	<g id="frame-Periode">
		<rect x="548" y="375" width="88" height="30" fill="#FFFFFF" stroke="#FFFFFF" stroke-width="0"/>
		<rect x="548" y="405.0" width="88" height="46" fill="#FFFFFF" stroke="#FFFFFF" stroke-width="0"/>
		<rect x="548" y="375" width="88" height="76" fill="none" stroke="#000000" stroke-width="1.5"/>
		<line x1="548" y1="405" x2="636" y2="405" stroke="#000000" stroke-width="1.5"/>
	</g>
	<text x="556" y="396.3" fill="#000000" font-family="Copperplate" font-size="18">Periode</text>
	<text x="556" y="422.1" fill="#000000" font-family="Gill Sans" font-size="15">periode_id</text>
	<line x1="556" y1="425" x2="625" y2="425" stroke="#000000" stroke-width="1"/>
	<text x="556" y="439.1" fill="#000000" font-family="Gill Sans" font-size="15">nom</text>
</g>

<!-- Entity AnneeScolaire -->
<g id="entity-AnneeScolaire">
	<g id="frame-AnneeScolaire">
		<rect x="409" y="492" width="154" height="30" fill="#FFFFFF" stroke="#FFFFFF" stroke-width="0"/>
		<rect x="409" y="522.0" width="154" height="46" fill="#FFFFFF" stroke="#FFFFFF" stroke-width="0"/>
		<rect x="409" y="492" width="154" height="76" fill="none" stroke="#000000" stroke-width="1.5"/>
		<line x1="409" y1="522" x2="563" y2="522" stroke="#000000" stroke-width="1.5"/>
	</g>
	<text x="417" y="513.3" fill="#000000" font-family="Copperplate" font-size="18">AnneeScolaire</text>
	<text x="417" y="539.1" fill="#000000" font-family="Gill Sans" font-size="15">annee_id</text>
	<line x1="417" y1="542" x2="474" y2="542" stroke="#000000" stroke-width="1"/>
	<text x="417" y="556.1" fill="#000000" font-family="Gill Sans" font-size="15">nom</text>
</g>
</svg>